<svg width="20" height="20" xmlns="http://www.w3.org/2000/svg" viewBox="0 0 48 48">
  <path fill="#4285F4" d="M24 9.5c3.64 0 6.64 1.31 9.11 3.44l6.8-6.8C35.64 2.68 30.14 0 24 0 14.8 0 7.06 5.23 3.38 12.78l7.9 6.1C13.06 12.34 18.16 9.5 24 9.5z"/>
  <path fill="#34A853" d="M46.67 24.6c0-1.68-.15-3.33-.45-4.94H24v9.34h12.8c-.55 2.94-2.22 5.42-4.73 7.1l7.35 5.68C43.4 36.82 46.67 30.38 46.67 24.6z"/>
  <path fill="#FBBC05" d="M8.94 28.94a14.49 14.49 0 01-.77-4.94c0-1.72.28-3.38.77-4.94l-7.9-6.1C-.1 16.9 0 20.4 0 24c0 3.62.1 7.12 1.04 10.46l7.9-6.1z"/>
  <path fill="#EA4335" d="M24 48c6.14 0 11.25-2.03 15.02-5.5l-7.35-5.68c-2.1 1.42-4.75 2.27-7.67 2.27-5.86 0-10.84-3.94-12.62-9.21l-7.9 6.1C7.06 42.77 14.8 48 24 48z"/>
  <path fill="none" d="M0 0h48v48H0z"/>
</svg>
